<svg width="38" height="38" viewBox="0 0 38 38" fill="none" xmlns="http://www.w3.org/2000/svg">
<path fill-rule="evenodd" clip-rule="evenodd" d="M19 0C20.2714 0 21.5136 0.124877 22.7151 0.363034V6.47486C25.5173 6.98436 27.7393 9.02235 28.4469 9.97765V2.51127C34.1553 5.78884 38 11.9454 38 19C38 29.4934 29.4934 38 19 38C8.50659 38 0 29.4934 0 19C0 11.9454 3.8447 5.78884 9.55307 2.51127V9.89481V9.97765L9.56193 9.97255L9.55307 9.89481C10.2607 8.9628 12.2704 7.04325 15.0726 6.54618V18.6579C15.0726 18.9445 15.1885 19.2189 15.3939 19.4187L18.2496 22.1972C18.6657 22.6021 19.3298 22.5975 19.7403 22.187L22.4042 19.5232C22.6033 19.3241 22.7151 19.0541 22.7151 18.7726V6.48029C21.5376 6.13142 20.2907 5.94413 19 5.94413C17.6315 5.94413 16.3122 6.15469 15.0726 6.54517V0.406381C16.3399 0.140051 17.6536 0 19 0ZM9.55307 9.98824C7.31711 12.3315 5.94413 15.5054 5.94413 19C5.94413 26.2106 11.7894 32.0559 19 32.0559C26.2106 32.0559 32.0559 26.2106 32.0559 19C32.0559 15.5054 30.6829 12.3315 28.4469 9.98824V20.6832C28.4469 20.9648 28.3351 21.2347 28.136 21.4338L19.7506 29.8193C19.336 30.2338 18.664 30.2338 18.2494 29.8193L9.86396 21.4338C9.6649 21.2347 9.55307 20.9648 9.55307 20.6832V9.98824Z" fill="#3378FF"/>
</svg>
